<?xml version="1.0" encoding="UTF-8"?>
<svg id="Layer_2" data-name="Layer 2" xmlns="http://www.w3.org/2000/svg" viewBox="0 0 73.75 46.5">
  <defs>
    <style>
      .cls-1 {
        fill: none;
        stroke: #7f27ff;
        stroke-miterlimit: 10;
        stroke-width: .86px;
      }

      .cls-2 {
        fill: #fff;
      }

      .cls-3 {
        fill: #fdbf60;
      }

      .cls-4, .cls-5 {
        fill: #7f27ff;
      }

      .cls-6 {
        fill: #9f70fd;
      }

      .cls-7 {
        fill: #2e3192;
      }

      .cls-5 {
        opacity: .2;
      }
    </style>
  </defs>
  <g id="Layer_1-2" data-name="Layer 1">
    <g>
      <path class="cls-6" d="M64.01,45.06l-2.66-14.38C56.32,3.54,17.43,3.54,12.41,30.68l-2.66,14.38h54.27Z"/>
      <g>
        <path class="cls-6" d="M39.51,.92c.43-1.22,2.15-1.22,2.58,0l.67,1.93,1.96,5.62h-7.85l1.96-5.62,.67-1.93Z"/>
        <polygon class="cls-4" points="40.8 8.46 41.43 8.46 39.79 3.78 39.15 1.95 38.84 2.84 36.88 8.46 40.8 8.46"/>
      </g>
      <g>
        <path class="cls-6" d="M29.97,.92c.43-1.22,2.15-1.22,2.58,0l.67,1.93,1.96,5.62h-7.85l1.96-5.62,.67-1.93Z"/>
        <polygon class="cls-4" points="31.26 8.46 31.88 8.46 30.24 3.78 29.6 1.95 29.29 2.84 27.33 8.46 31.26 8.46"/>
      </g>
      <rect class="cls-6" x="10.69" y="7.72" width="52.37" height="27.68" rx="13.84" ry="13.84"/>
      <circle class="cls-7" cx="33.87" cy="15.27" r="1.91"/>
      <circle class="cls-7" cx="39.89" cy="15.27" r="1.91"/>
      <path class="cls-2" d="M42.17,18.77v-.02h-10.58v.02c-2.88,.17-5.17,2.56-5.17,5.48s2.46,5.5,5.5,5.5c2.19,0,4.08-1.29,4.96-3.14,.88,1.86,2.77,3.14,4.96,3.14,3.04,0,5.5-2.46,5.5-5.5s-2.29-5.31-5.17-5.48Z"/>
      <path class="cls-3" d="M36.31,22.21c.29,.37,.85,.37,1.14,0l1.09-1.37,.72-.91c.38-.48,.04-1.18-.57-1.18h-3.62c-.61,0-.94,.7-.57,1.18l.72,.91,1.09,1.37Z"/>
      <g>
        <circle class="cls-5" cx="18.88" cy="20.62" r="3.74"/>
        <circle class="cls-5" cx="54.88" cy="20.62" r="3.74"/>
      </g>
      <path class="cls-3" d="M72.36,46.5H1.4c-.77,0-1.4-.62-1.4-1.4s.62-1.4,1.4-1.4H72.36c.77,0,1.4,.62,1.4,1.4s-.62,1.4-1.4,1.4Z"/>
      <g>
        <g>
          <path class="cls-2" d="M20.88,39.21h2.25v2.25c0,1.24-1.01,2.25-2.25,2.25h0c-1.24,0-2.25-1.01-2.25-2.25h0c0-1.24,1.01-2.25,2.25-2.25Z"/>
          <path class="cls-2" d="M24.88,39.21h0c1.24,0,2.25,1.01,2.25,2.25v2.25h-2.25c-1.24,0-2.25-1.01-2.25-2.25h0c0-1.24,1.01-2.25,2.25-2.25Z" transform="translate(49.75 82.92) rotate(-180)"/>
        </g>
        <g>
          <path class="cls-2" d="M48.88,39.21h2.25v2.25c0,1.24-1.01,2.25-2.25,2.25h0c-1.24,0-2.25-1.01-2.25-2.25h0c0-1.24,1.01-2.25,2.25-2.25Z"/>
          <path class="cls-2" d="M52.88,39.21h0c1.24,0,2.25,1.01,2.25,2.25v2.25h-2.25c-1.24,0-2.25-1.01-2.25-2.25h0c0-1.24,1.01-2.25,2.25-2.25Z" transform="translate(105.75 82.92) rotate(-180)"/>
        </g>
      </g>
      <g>
        <circle class="cls-1" cx="32.98" cy="15.2" r="3.86"/>
        <circle class="cls-1" cx="40.78" cy="15.2" r="3.86"/>
      </g>
    </g>
  </g>
</svg>