<?xml version="1.0" encoding="UTF-8"?>
<svg id="Layer_2" data-name="Layer 2" xmlns="http://www.w3.org/2000/svg" viewBox="0 0 73.75 72.71">
  <defs>
    <style>
      .cls-1 {
        fill: #fff;
      }

      .cls-2 {
        fill: #fdbf60;
      }

      .cls-3, .cls-4 {
        fill: #7f27ff;
      }

      .cls-5 {
        fill: #9f70fd;
      }

      .cls-6 {
        fill: #2e3192;
      }

      .cls-4 {
        opacity: .2;
      }
    </style>
  </defs>
  <g id="Layer_1-2" data-name="Layer 1">
    <g>
      <path class="cls-5" d="M64.01,71.27l-2.66-14.38c-5.03-27.14-43.92-27.14-48.94,0l-2.66,14.38h54.27Z"/>
      <g>
        <path class="cls-5" d="M39.51,27.13c.43-1.22,2.15-1.22,2.58,0l.67,1.93,1.96,5.62h-7.85l1.96-5.62,.67-1.93Z"/>
        <polygon class="cls-3" points="40.8 34.67 41.43 34.67 39.79 29.99 39.15 28.16 38.84 29.05 36.88 34.67 40.8 34.67"/>
      </g>
      <g>
        <path class="cls-5" d="M29.97,27.13c.43-1.22,2.15-1.22,2.58,0l.67,1.93,1.96,5.62h-7.85l1.96-5.62,.67-1.93Z"/>
        <polygon class="cls-3" points="31.26 34.67 31.88 34.67 30.24 29.99 29.6 28.16 29.29 29.05 27.33 34.67 31.26 34.67"/>
      </g>
      <rect class="cls-5" x="10.69" y="33.93" width="52.37" height="27.68" rx="13.84" ry="13.84"/>
      <g>
        <circle class="cls-4" cx="18.88" cy="46.83" r="3.74"/>
        <circle class="cls-4" cx="54.88" cy="46.83" r="3.74"/>
      </g>
      <path class="cls-2" d="M72.36,72.71H1.4c-.77,0-1.4-.62-1.4-1.4s.62-1.4,1.4-1.4H72.36c.77,0,1.4,.62,1.4,1.4s-.62,1.4-1.4,1.4Z"/>
      <g>
        <g>
          <path class="cls-1" d="M20.88,65.42h2.25v2.25c0,1.24-1.01,2.25-2.25,2.25h0c-1.24,0-2.25-1.01-2.25-2.25h0c0-1.24,1.01-2.25,2.25-2.25Z"/>
          <path class="cls-1" d="M24.88,65.42h0c1.24,0,2.25,1.01,2.25,2.25v2.25h-2.25c-1.24,0-2.25-1.01-2.25-2.25h0c0-1.24,1.01-2.25,2.25-2.25Z" transform="translate(49.75 135.35) rotate(-180)"/>
        </g>
        <g>
          <path class="cls-1" d="M48.88,65.42h2.25v2.25c0,1.24-1.01,2.25-2.25,2.25h0c-1.24,0-2.25-1.01-2.25-2.25h0c0-1.24,1.01-2.25,2.25-2.25Z"/>
          <path class="cls-1" d="M52.88,65.42h0c1.24,0,2.25,1.01,2.25,2.25v2.25h-2.25c-1.24,0-2.25-1.01-2.25-2.25h0c0-1.24,1.01-2.25,2.25-2.25Z" transform="translate(105.75 135.35) rotate(-180)"/>
        </g>
      </g>
      <g>
        <path class="cls-5" d="M36.3,0c.39,0,.78,0,1.17,0,.33,.04,.66,.08,.99,.13,4.8,.81,8.17,5.32,7.5,10.16-.51,3.71-2.63,6.2-6.12,7.53-.11,.04-.22,.12-.28,.21-.59,.86-1.17,1.72-1.76,2.58-.17,.24-.38,.44-.58,.66h-.67c-.16-.16-.33-.31-.46-.49-.63-.91-1.25-1.83-1.88-2.75-.06-.09-.18-.17-.28-.22-.27-.12-.56-.21-.83-.33-5.45-2.52-7.1-9.34-3.37-14.04,1.41-1.77,3.25-2.86,5.48-3.28C35.57,.09,35.94,.05,36.3,0Zm.58,18.99c.06-.09,.11-.15,.15-.21,.45-.66,.9-1.32,1.34-1.98,.16-.24,.36-.39,.63-.47,3.7-1.13,5.89-4.68,5.25-8.49-.72-4.25-5.1-7.06-9.26-5.93-3.72,1.01-6.09,4.51-5.51,8.3,.47,3.08,2.28,5.09,5.22,6.1,.31,.11,.55,.26,.73,.54,.47,.71,.95,1.41,1.45,2.14Z"/>
        <path class="cls-5" d="M37.8,10.41c0,.71,0,1.41,0,2.12,0,.23-.09,.39-.28,.5-.42,.24-.85,.24-1.27,.01-.19-.1-.29-.27-.28-.49,0-1.44,0-2.87,0-4.31,0-.26,.12-.43,.34-.52,.39-.16,.78-.16,1.17,.02,.21,.1,.32,.26,.32,.51,0,.72,0,1.44,0,2.16Z"/>
        <path class="cls-5" d="M36.83,6.53c-.06-.01-.17-.02-.27-.06-.43-.14-.7-.54-.63-.93,.08-.41,.54-.73,1-.7,.08,0,.17,.02,.24,.04,.42,.12,.7,.5,.65,.87-.06,.43-.47,.77-1,.77Z"/>
      </g>
      <circle class="cls-6" cx="36.98" cy="49.19" r="3.16"/>
      <g>
        <circle class="cls-6" cx="33.87" cy="37.48" r="1.91"/>
        <circle class="cls-6" cx="39.89" cy="37.48" r="1.91"/>
        <path class="cls-1" d="M42.17,40.98v-.02h-10.58v.02c-2.88,.17-5.17,2.56-5.17,5.48s2.46,5.5,5.5,5.5c2.19,0,4.08-1.29,4.96-3.14,.88,1.86,2.77,3.14,4.96,3.14,3.04,0,5.5-2.46,5.5-5.5s-2.29-5.31-5.17-5.48Z"/>
        <path class="cls-2" d="M36.31,44.42c.29,.37,.85,.37,1.14,0l1.09-1.37,.72-.91c.38-.48,.04-1.18-.57-1.18h-3.62c-.61,0-.94,.7-.57,1.18l.72,.91,1.09,1.37Z"/>
      </g>
    </g>
  </g>
</svg>